<?xml version="1.0" standalone="no"?>
<!DOCTYPE svg PUBLIC "-//W3C//DTD SVG 20010904//EN"
 "http://www.w3.org/TR/2001/REC-SVG-20010904/DTD/svg10.dtd">
<svg version="1.0" xmlns="http://www.w3.org/2000/svg"
 width="1000.000000pt" height="1000.000000pt" viewBox="0 0 1000.000000 1000.000000"
 preserveAspectRatio="xMidYMid meet">

<g transform="translate(0.000000,1000.000000) scale(0.100000,-0.100000)"
fill="#000000" stroke="none">
<path d="M2915 7741 c-22 -10 -57 -36 -77 -57 -74 -78 -68 173 -68 -2686 0
-2487 1 -2574 19 -2613 10 -22 36 -57 57 -77 77 -74 -83 -68 1884 -68 1567 0
1775 2 1807 15 59 25 96 59 128 116 l30 54 3 633 c2 347 -1 632 -5 632 -5 0
-45 -37 -91 -83 l-82 -82 0 -538 c0 -524 0 -537 -20 -557 -20 -20 -33 -20
-1768 -20 l-1749 0 -21 23 -22 23 0 2545 0 2546 23 21 23 22 1296 0 1296 0
-10 -45 c-5 -25 -8 -193 -6 -382 3 -331 3 -339 26 -385 13 -27 42 -64 65 -83
73 -63 101 -67 507 -63 l360 3 0 -537 c0 -295 4 -539 9 -542 4 -3 45 32 90 78
l81 84 0 496 c0 405 -3 503 -14 530 -17 42 -963 991 -1001 1006 -17 6 -503 10
-1378 10 -1297 0 -1354 -1 -1392 -19z m3203 -939 c-156 -1 -297 0 -315 3 -62
11 -63 17 -63 355 l0 305 330 -330 330 -330 -282 -3z"/>
<path d="M7460 6140 c-19 -10 -507 -491 -1084 -1068 l-1049 -1050 -93 -378
c-51 -209 -94 -395 -94 -415 0 -45 33 -79 77 -79 17 0 204 43 415 95 l383 96
1049 1047 c722 721 1054 1059 1067 1087 24 51 24 99 0 150 -23 49 -483 509
-524 525 -43 15 -108 11 -147 -10z m305 -370 l220 -220 -80 -80 c-44 -44 -84
-80 -90 -80 -5 0 -108 98 -227 217 l-218 218 82 82 c46 46 85 83 88 83 3 0
104 -99 225 -220z m-290 -290 l220 -220 -862 -862 -861 -861 -223 222 -223
222 859 859 c473 473 862 860 865 860 3 0 104 -99 225 -220z m-1687 -2019
c-31 -10 -443 -109 -446 -106 -1 1 23 105 54 230 l57 227 174 -174 c95 -95
168 -175 161 -177z"/>
<path d="M3612 5577 c-22 -23 -29 -68 -16 -102 18 -46 -4 -45 1118 -45 l1054
0 31 26 c40 33 43 83 6 119 l-24 25 -1074 0 -1074 0 -21 -23z"/>
<path d="M3615 5055 c-36 -35 -35 -96 1 -124 27 -21 29 -21 1096 -21 l1069 0
24 25 c17 16 25 35 25 60 0 25 -8 44 -25 60 l-24 25 -1071 0 -1071 0 -24 -25z"/>
<path d="M3635 4548 c-51 -27 -62 -98 -22 -136 l23 -22 855 0 c685 1 857 3
871 14 29 21 41 65 27 98 -25 60 10 58 -901 58 -584 -1 -839 -4 -853 -12z"/>
<path d="M3612 4007 c-22 -23 -29 -68 -16 -102 18 -45 22 -45 764 -45 742 0
746 0 764 45 13 36 6 82 -17 103 l-23 22 -725 0 -726 0 -21 -23z"/>
<path d="M3615 3485 c-17 -16 -25 -35 -25 -60 0 -25 8 -44 25 -60 l24 -25 501
0 502 0 29 29 c38 38 38 74 0 112 l-29 29 -502 0 -501 0 -24 -25z"/>
<path d="M160 2325 c0 -25 5 -45 10 -45 6 0 10 14 10 31 0 27 3 30 23 23 12
-3 34 -13 49 -20 31 -16 38 -17 38 -5 0 7 -108 61 -124 61 -3 0 -6 -20 -6 -45z"/>
<path d="M188 2263 c-26 -7 -33 -41 -12 -64 32 -35 114 -17 114 26 0 31 -54
51 -102 38z m66 -19 c24 -9 19 -33 -8 -40 -31 -7 -66 3 -66 21 0 21 41 32 74
19z"/>
<path d="M226 2151 c-3 -4 -17 -6 -30 -4 -20 4 -26 0 -31 -20 -7 -26 0 -47 14
-47 5 0 6 11 3 25 -3 18 0 25 12 25 9 0 16 -7 16 -15 0 -22 17 -18 23 6 8 29
32 18 32 -14 -1 -30 12 -36 22 -11 14 37 -41 87 -61 55z"/>
<path d="M160 2025 c0 -25 5 -45 10 -45 6 0 10 14 10 31 0 27 3 30 23 23 12
-3 34 -13 49 -20 31 -16 38 -17 38 -5 0 7 -108 61 -124 61 -3 0 -6 -20 -6 -45z"/>
<path d="M240 1961 c0 -5 -18 -8 -40 -6 -52 6 -53 -15 -3 -50 47 -32 63 -32
63 0 0 16 6 25 15 25 8 0 15 7 15 16 0 10 -6 14 -15 10 -8 -3 -15 -1 -15 4 0
6 -4 10 -10 10 -5 0 -10 -4 -10 -9z m-11 -30 c7 -5 12 -14 9 -21 -2 -8 -11 -5
-28 9 -17 14 -20 20 -10 21 8 0 21 -4 29 -9z"/>
<path d="M270 1833 l0 -27 -20 22 c-29 31 -78 30 -86 -2 -6 -25 1 -46 15 -46
4 0 7 10 7 23 -1 32 34 34 64 2 32 -34 40 -32 40 15 0 22 -4 40 -10 40 -5 0
-10 -12 -10 -27z"/>
<path d="M160 1725 c0 -25 5 -45 10 -45 6 0 10 14 10 31 0 27 3 30 23 23 12
-3 34 -13 49 -20 31 -16 38 -17 38 -5 0 7 -108 61 -124 61 -3 0 -6 -20 -6 -45z"/>
<path d="M240 1662 c0 -6 -16 -8 -40 -6 -53 6 -54 -16 -3 -51 47 -32 63 -32
63 0 0 16 6 25 15 25 8 0 15 7 15 15 0 8 -4 15 -9 15 -5 0 -16 3 -25 6 -9 3
-16 2 -16 -4z m-3 -37 c9 -25 -2 -27 -28 -6 l-24 20 23 1 c12 0 25 -7 29 -15z"/>
<path d="M234 1549 c-4 -7 -21 -9 -40 -6 -47 8 -45 -15 3 -48 47 -32 63 -32
63 0 0 16 6 25 15 25 8 0 15 7 15 15 0 9 -6 12 -15 9 -8 -4 -15 -1 -15 5 0 14
-17 14 -26 0z m-5 -28 c7 -5 12 -14 9 -21 -2 -8 -11 -5 -28 9 -17 14 -20 20
-10 21 8 0 21 -4 29 -9z"/>
<path d="M190 1449 c0 -5 -4 -7 -10 -4 -5 3 -10 2 -10 -4 0 -5 6 -12 13 -15 9
-5 9 -7 0 -12 -10 -4 -9 -9 2 -20 8 -9 20 -12 26 -8 6 3 14 1 18 -5 5 -8 15
-9 31 -3 19 7 21 10 7 15 -23 9 -22 28 1 20 12 -4 11 0 -7 17 -18 18 -25 20
-32 9 -6 -11 -9 -10 -15 4 -7 19 -24 23 -24 6z m45 -39 c-3 -5 -10 -10 -16
-10 -5 0 -9 5 -9 10 0 6 7 10 16 10 8 0 12 -4 9 -10z"/>
<path d="M140 1280 c0 -6 38 -10 95 -10 57 0 95 4 95 10 0 6 -38 10 -95 10
-57 0 -95 -4 -95 -10z"/>
<path d="M261 1189 c-22 -18 -25 -19 -42 -3 -11 10 -22 14 -27 10 -4 -4 4 -16
17 -27 l23 -19 -46 0 c-34 0 -46 -4 -46 -15 0 -12 15 -15 75 -15 60 0 75 3 75
15 0 9 -9 15 -22 15 l-23 0 24 19 c13 10 22 23 20 29 -2 6 -14 3 -28 -9z"/>
<path d="M190 1081 c0 -27 27 -51 55 -51 24 0 45 25 45 54 0 25 -18 19 -22 -6
-2 -17 -10 -23 -28 -23 -18 0 -26 6 -28 23 -4 27 -22 30 -22 3z"/>
<path d="M206 994 c-19 -18 -20 -28 -6 -55 21 -39 90 -16 90 30 0 16 -30 41
-50 41 -10 0 -26 -7 -34 -16z m59 -29 c0 -22 -31 -33 -47 -17 -17 17 -1 44 24
40 15 -2 23 -10 23 -23z"/>
<path d="M190 900 c0 -5 -7 -10 -15 -10 -8 0 -15 -4 -15 -10 0 -5 6 -10 14
-10 8 0 17 -6 20 -12 5 -10 7 -10 12 0 3 6 21 12 40 12 34 0 56 22 39 38 -4 4
-10 1 -12 -5 -5 -15 -63 -18 -63 -3 0 6 -4 10 -10 10 -5 0 -10 -4 -10 -10z"/>
<path d="M212 810 c-19 -34 -35 -34 -40 -2 -5 30 -22 28 -22 -2 0 -50 54 -61
77 -16 17 34 38 32 38 -3 -1 -32 18 -31 23 2 8 53 -49 69 -76 21z"/>
<path d="M200 675 c-22 -26 3 -65 40 -65 35 0 58 36 45 67 -7 16 -9 15 -13 -7
-6 -40 -22 -48 -22 -12 0 25 -4 32 -19 32 -10 0 -24 -7 -31 -15z m30 -26 c0
-11 -4 -17 -10 -14 -5 3 -10 13 -10 21 0 8 5 14 10 14 6 0 10 -9 10 -21z"/>
<path d="M197 561 c-8 -22 -18 -31 -34 -31 -14 0 -23 -6 -23 -15 0 -23 138
-22 147 2 10 26 -19 68 -50 71 -24 3 -30 -2 -40 -27z m57 3 c28 -11 18 -34
-14 -34 -18 0 -30 5 -30 13 0 25 15 32 44 21z"/>
<path d="M206 464 c-19 -18 -20 -28 -6 -55 21 -39 90 -16 90 30 0 16 -30 41
-50 41 -10 0 -26 -7 -34 -16z m59 -29 c0 -22 -31 -33 -47 -17 -17 17 -1 44 24
40 15 -2 23 -10 23 -23z"/>
<path d="M140 350 c0 -5 11 -10 25 -10 15 0 25 -6 25 -14 0 -45 73 -62 92 -22
20 45 6 56 -72 56 -40 0 -70 -4 -70 -10z m128 -27 c-2 -12 -12 -18 -28 -18
-16 0 -26 6 -28 18 -3 13 3 17 28 17 25 0 31 -4 28 -17z"/>
<path d="M220 246 c-36 -13 -66 -29 -68 -37 -1 -9 20 -21 68 -35 38 -12 70
-17 70 -12 0 6 -9 12 -20 15 -14 4 -20 14 -20 34 0 22 5 29 20 29 11 0 20 7
20 15 0 8 -1 15 -2 14 -2 0 -32 -11 -68 -23z m8 -51 c-7 -7 -48 7 -48 15 0 15
45 16 48 2 2 -8 2 -15 0 -17z"/>
</g>
</svg>
